{"asset":{"version":"2.0","generator":"Unity 6000.2.6f2 glTFast 6.10.3"},"nodes":[{"name":"door01_dynamic_reference.smd","mesh":0,"skin":0},{"name":"Door01_Dynamic.handle","translation":[0.8345806,-0.197942212,0.038052626],"scale":[1,0.99999994,1]},{"name":"Door01_Dynamic.door","children":[1],"rotation":[-1.82257793E-07,0,0,1]},{"name":"Door","children":[0,2]}],"buffers":[{"uri":"Door.bin","byteLength":25568}],"bufferViews":[{"buffer":0,"byteLength":128},{"buffer":0,"byteLength":4320,"byteOffset":128,"target":34963},{"buffer":0,"byteLength":7920,"byteOffset":4448,"byteStride":24,"target":34962},{"buffer":0,"byteLength":2640,"byteOffset":12368,"byteStride":8,"target":34962},{"buffer":0,"byteLength":10560,"byteOffset":15008,"byteStride":32,"target":34962}],"accessors":[{"bufferView":2,"componentType":5126,"count":330,"type":"VEC3","max":[0.9144,1.0287,0.1299146],"min":[0,-1.0287,-0.09352003]},{"bufferView":2,"componentType":5126,"count":330,"type":"VEC3","byteOffset":12},{"bufferView":3,"componentType":5126,"count":330,"type":"VEC2"},{"bufferView":4,"componentType":5126,"count":330,"type":"VEC4"},{"bufferView":4,"componentType":5123,"count":330,"type":"VEC4","byteOffset":16},{"bufferView":0,"componentType":5126,"count":2,"type":"MAT4"},{"bufferView":1,"componentType":5125,"count":1080,"type":"SCALAR"}],"images":[{"name":"Door.png","uri":"Door.png","mimeType":"image/png"}],"materials":[{"name":"door01a","pbrMetallicRoughness":{"metallicFactor":0,"roughnessFactor":0.5,"baseColorTexture":{"index":0}},"doubleSided":true}],"meshes":[{"name":"props_doors/door01_dynamic.mdl_Body_door01_dynamic_reference.sm","primitives":[{"attributes":{"POSITION":0,"NORMAL":1,"TEXCOORD_0":2,"JOINTS_0":4,"WEIGHTS_0":3},"indices":6,"material":0}]}],"samplers":[{"minFilter":9987}],"scene":0,"scenes":[{"name":"Door","nodes":[3]}],"skins":[{"inverseBindMatrices":5,"joints":[2,1]}],"textures":[{"source":0,"sampler":0}]}